<?xml version="1.0" standalone="no"?>
<!DOCTYPE svg PUBLIC "-//W3C//DTD SVG 20010904//EN"
 "http://www.w3.org/TR/2001/REC-SVG-20010904/DTD/svg10.dtd">
<svg version="1.0" xmlns="http://www.w3.org/2000/svg"
 width="1000.000000pt" height="1000.000000pt" viewBox="0 0 1000.000000 1000.000000"
 preserveAspectRatio="xMidYMid meet">

<g transform="translate(0.000000,1000.000000) scale(0.100000,-0.100000)"
fill="#000000" stroke="none">
<path d="M4100 8359 c-119 -14 -274 -48 -389 -86 -124 -40 -339 -142 -443
-209 -478 -308 -796 -798 -884 -1364 -23 -146 -23 -421 0 -565 50 -316 165
-600 348 -860 78 -112 305 -342 417 -424 514 -377 1164 -488 1754 -298 l99 32
-98 59 c-157 94 -279 190 -420 331 l-131 132 -114 6 c-528 31 -980 374 -1157
879 -90 253 -93 557 -10 817 64 201 157 357 303 510 182 189 388 307 650 372
119 30 369 37 506 14 242 -40 458 -142 646 -303 78 -67 120 -115 302 -344 186
-233 463 -419 786 -526 194 -65 463 -112 632 -112 l68 1 -66 28 c-274 117
-585 420 -791 772 -35 60 -85 146 -111 192 -183 318 -496 603 -842 768 -317
152 -708 218 -1055 178z"/>
<path d="M5730 8359 c-134 -16 -293 -52 -422 -96 l-46 -16 91 -53 c149 -85
283 -190 430 -336 l137 -138 79 0 c216 0 470 -81 668 -213 687 -457 790 -1419
215 -2006 -180 -184 -413 -311 -672 -367 -119 -26 -400 -26 -518 -1 -307 67
-570 227 -759 460 -32 40 -60 74 -63 77 -3 3 -36 44 -72 91 -171 220 -428 403
-723 514 -203 76 -500 135 -683 135 l-77 0 102 -50 c283 -139 577 -449 789
-830 124 -225 237 -374 400 -530 289 -277 631 -445 1049 -516 138 -24 452 -24
590 0 658 111 1190 510 1471 1101 126 265 184 530 184 837 0 658 -329 1264
-885 1631 -243 160 -563 274 -857 306 -112 13 -319 12 -428 0z"/>
</g>
</svg>
